<?xml version="1.0" encoding="UTF-8" standalone="no"?>
<!DOCTYPE svg PUBLIC "-//W3C//DTD SVG 1.1//EN" "http://www.w3.org/Graphics/SVG/1.1/DTD/svg11.dtd">
<svg xmlns="http://www.w3.org/2000/svg" xmlns:xlink="http://www.w3.org/1999/xlink" version="1.1" width="207.035pt" height="181.491pt" viewBox="0 0 207.035 181.491">
<g enable-background="new">
<g id="Layer-1" data-name="Layer 1">
<path transform="matrix(1,0,0,-1,0,181.491)" d="M 0 .001 L 207.035 .001 L 207.035 181.49102 L 0 181.49102 Z " fill="#000000"/>
<clipPath id="cp1">
<path transform="matrix(1,0,0,-1,0,181.491)" d="M 0 181.491 L 207.035 181.491 L 207.035 0 L 0 0 Z "/>
</clipPath>
<g clip-path="url(#cp1)">
<path transform="matrix(1,0,0,-1,160.2725,92.7537)" d="M 0 0 C -.088 1.146 -.234 2.521 -.549 3.967 C -.979 5.814 -.125 7.189 -.047 7.338 C .18 7.787 .332 8.326 .365 8.955 C .5 11.363 -.511 13.794 -1.406 15.644 C -1.775 16.405 -2.185 17.13 -2.627 17.827 C -3.514 19.149 -2.834 22.294 -2.783 22.463 C -2.363 24.075 -3.132 24.491 -4.961 27.802 C -5.078 28.018 -5.177 28.188 -5.233 28.297 C -5.563 29.082 -5.648 30.697 -5.432 32.08 C -5.299 32.939 -5.107 33.814 -4.906 34.734 C -4.739 35.507 -4.563 36.307 -4.415 37.131 C -3.849 40.318 -3.404 44.218 -3.969 47.485 C -4.316 49.501 -5.154 51.558 -6.314 53.274 C -7.264 54.678 -9.307 56.763 -11.555 56.913 C -11.787 56.931 -12.025 56.936 -12.256 56.936 C -13.25 56.936 -14.045 56.79 -14.807 56.649 C -15.049 56.61 -15.303 56.56 -15.574 56.518 C -18.762 56.016 -21.898 54.752 -24.896 54.752 C -26.797 54.752 -28.629 54.858 -30.352 55.067 C -32.765 55.355 -35.228 55.895 -37.674 56.665 C -38.369 56.882 -39.107 57.13 -39.931 57.413 C -40.592 57.64 -41.262 57.919 -41.971 58.216 C -42.92 58.614 -43.902 59.026 -44.978 59.354 C -46.8 59.911 -48.445 60.185 -50.012 60.185 C -50.715 60.185 -51.408 60.126 -52.064 60.014 C -52.977 59.854 -53.842 59.594 -54.607 59.364 C -55.331 59.148 -56.176 58.952 -56.551 58.952 C -56.92 58.952 -57.764 59.148 -58.486 59.364 C -59.252 59.594 -60.121 59.854 -61.029 60.014 C -61.686 60.126 -62.378 60.183 -63.086 60.183 C -64.648 60.183 -66.299 59.911 -68.117 59.354 C -69.195 59.026 -70.176 58.614 -71.127 58.216 C -71.836 57.919 -72.502 57.64 -73.16 57.413 C -73.986 57.13 -74.729 56.882 -75.422 56.665 C -77.871 55.892 -80.334 55.355 -82.746 55.065 C -84.465 54.856 -86.302 54.752 -88.199 54.752 C -91.197 54.752 -94.33 56.016 -97.52 56.518 C -97.791 56.56 -98.042 56.61 -98.285 56.649 C -99.053 56.79 -99.844 56.936 -100.842 56.936 C -101.071 56.936 -101.307 56.931 -101.539 56.913 C -103.787 56.763 -105.834 54.678 -106.783 53.274 C -107.943 51.558 -108.776 49.5 -109.127 47.481 C -109.689 44.218 -109.242 40.318 -108.68 37.129 C -108.533 36.307 -108.358 35.507 -108.189 34.732 C -107.988 33.814 -107.795 32.939 -107.662 32.08 C -107.443 30.697 -107.535 29.082 -107.866 28.297 C -107.921 28.188 -108.016 28.018 -108.136 27.802 C -109.966 24.491 -110.734 24.075 -110.31 22.461 C -110.265 22.294 -109.58 20.536 -110.471 19.212 C -110.91 18.512 -111.32 16.405 -111.687 15.644 C -112.587 13.794 -113.596 11.363 -113.463 8.955 C -113.424 8.32 -113.276 7.787 -113.049 7.338 C -112.973 7.187 -112.117 5.814 -112.547 3.967 C -112.859 2.521 -113.007 1.146 -113.09 0 C -113.154 -.793 -113.229 -3.057 -113.234 -3.243 C -113.264 -4.023 -113.173 -5.298 -112.26 -6.262 C -112.172 -6.349 -110.789 -7.396 -110.789 -10.123 C -110.789 -11.986 -110.471 -13.9 -109.848 -15.813 C -109.295 -17.49 -108.393 -18.279 -107.587 -18.644 C -106.186 -19.33 -105.775 -20.303 -105.553 -21.307 C -104.986 -23.787 -104.045 -26.189 -102.793 -28.342 L -102.771 -28.379 C -102.492 -28.873 -101.715 -30.245 -100.207 -30.609 C -98.99 -30.875 -97.764 -31.631 -97.233 -32.766 C -96.967 -33.271 -96.641 -33.86 -96.26 -34.439 C -95.346 -35.843 -93.867 -37.804 -91.627 -38.63 C -91.371 -38.729 -90.729 -38.828 -90.459 -38.828 C -88.76 -38.828 -87.166 -40.276 -87.073 -40.366 C -86.344 -41.106 -85.559 -41.783 -84.727 -42.39 L -84.457 -42.584 C -83.508 -43.282 -82.32 -44.151 -80.893 -44.63 C -77.481 -45.683 -75.781 -47.51 -74.902 -49.072 C -72.707 -52.804 -70.416 -53.599 -68.846 -53.946 C -68.617 -53.995 -68.389 -54.021 -68.159 -54.021 C -67.621 -54.021 -65.927 -53.601 -64.869 -54.362 C -63.934 -54.999 -63.278 -55.308 -62.336 -55.308 C -62.203 -55.308 -62.076 -55.302 -61.945 -55.29 L -61.832 -55.276 L -61.717 -55.253 C -61.566 -55.222 -61.426 -55.187 -61.289 -55.147 C -60.809 -54.979 -59.531 -54.896 -58.502 -55.638 C -57.941 -55.987 -57.442 -56.245 -56.693 -56.245 C -55.947 -56.245 -55.451 -55.987 -54.886 -55.638 C -53.861 -54.896 -52.582 -54.979 -52.1 -55.147 C -51.965 -55.187 -51.822 -55.222 -51.674 -55.253 L -51.559 -55.276 L -51.443 -55.29 C -51.318 -55.302 -51.186 -55.308 -51.057 -55.308 C -50.113 -55.308 -49.458 -54.999 -48.519 -54.362 C -47.465 -53.601 -45.768 -54.021 -45.232 -54.021 C -45.004 -54.021 -44.773 -53.995 -44.547 -53.946 C -42.975 -53.599 -40.386 -52.804 -38.191 -49.072 C -37.313 -47.51 -35.617 -45.683 -32.201 -44.63 C -30.774 -44.151 -29.59 -43.282 -28.639 -42.584 L -28.373 -42.39 C -27.539 -41.783 -26.752 -41.106 -26.021 -40.366 C -25.932 -40.276 -24.334 -38.828 -22.637 -38.828 C -22.367 -38.828 -21.729 -38.729 -21.472 -38.63 C -19.23 -37.804 -17.753 -35.843 -16.838 -34.439 C -16.453 -33.86 -16.129 -33.271 -15.865 -32.766 C -15.332 -31.631 -14.107 -30.875 -12.889 -30.609 C -11.379 -30.245 -10.604 -28.873 -10.325 -28.379 L -10.305 -28.342 C -9.049 -26.189 -8.111 -23.787 -7.543 -21.307 C -7.318 -20.303 -6.908 -19.33 -5.51 -18.644 C -4.705 -18.279 -3.802 -17.49 -3.252 -15.813 C -2.623 -13.9 -2.304 -11.986 -2.304 -10.123 C -2.304 -7.396 -.926 -6.349 -.84 -6.256 C -.009 -5.389 .141 -4.26 .145 -3.473 C .145 -3.187 .056 -.793 0 0 " fill="#000000"/>
<path transform="matrix(1,0,0,-1,92.959,123.536899)" d="M 0 0 C -.728 .002 -.223 -5.583 -.121 -6.269 C .003 -7.062 .249 -7.886 .718 -7.862 C 1.376 -7.823 2.817 -7.097 3.085 -6.425 C 3.194 -6.146 3.147 -5.776 3.017 -5.382 C 2.608 -4.131 .431 -.008 0 0 " fill="#ffffff"/>
<path transform="matrix(1,0,0,-1,99.624,126.828899)" d="M 0 0 C -.229 .556 -1.248 .542 -1.629 .333 C -2.369 -.072 -2.137 -.765 -2.026 -1.488 C -1.942 -2.053 -1.818 -2.934 -1.277 -3.183 C -.984 -3.318 -.35 -3.164 -.184 -2.812 C .12 -2.166 .238 -.762 .02 -.063 C .012 -.042 .008 -.021 0 0 " fill="#ffffff"/>
<path transform="matrix(1,0,0,-1,101.9287,125.869899)" d="M 0 0 C -.361 -.048 -.84 -.218 -.84 -.716 C -.84 -1.546 -.929 -3.231 -.066 -3.635 C .832 -4.053 1.002 -2.705 1.06 -2.027 C 1.107 -1.421 1.163 -.771 .947 -.371 C .797 -.097 .51 .063 0 0 " fill="#ffffff"/>
<path transform="matrix(1,0,0,-1,89.5303,112.9724)" d="M 0 0 C .775 -1.43 1.318 .652 1.453 1.385 C 1.643 2.414 1.93 6.17 1.883 6.922 C 1.834 6.918 -2.385 7.125 -2.373 7.271 C -2.417 6.611 -.541 1.002 0 0 " fill="#ffffff"/>
<path transform="matrix(1,0,0,-1,74.9814,79.8387)" d="M 0 0 C .48 .314 .855 -.572 1.082 -.848 C 1.994 -1.976 3.023 -2.724 4.406 -3.151 C 5.244 -3.407 6.045 -3.425 6.918 -3.528 C 7.055 -3.544 7.33 -3.564 7.446 -3.619 C 8.433 -4.077 6.309 -4.922 6.007 -5.005 C 4.74 -5.356 3.188 -5.483 1.984 -4.865 C .96 -4.337 .254 -3.278 -.115 -2.21 C -.27 -1.75 -.504 -.332 0 0 M 2.121 4.677 C 2.494 4.939 3.131 4.027 3.316 3.762 C 3.71 3.208 4.127 2.703 4.658 2.273 C 6.338 .914 8.571 .479 10.542 .381 C 11.234 .345 11.924 .432 12.613 .395 C 12.81 .387 13.203 .309 13.299 .085 C 13.314 .043 13.322 0 13.314 -.054 C 13.289 -.279 12.85 -.545 12.676 -.664 C 11.754 -1.298 10.334 -1.678 9.223 -1.761 C 8.047 -1.851 6.852 -1.679 5.736 -1.282 C 4.318 -.771 3.191 .152 2.463 1.47 C 2.076 2.172 1.533 4.273 2.121 4.677 M .482 -7.167 C 1.062 -7.956 1.729 -8.901 2.262 -9.66 C 3.262 -11.075 3.134 -9.62 3.918 -8.61 C 4.222 -8.224 4.264 -7.839 4.719 -7.626 C 5.344 -7.329 6.365 -7.597 7.314 -6.955 C 7.811 -6.62 8.695 -5.173 9.204 -4.86 C 9.738 -4.522 12.011 -6.052 13.395 -5.53 C 14.167 -5.239 14.305 -1.985 15.137 -1.676 C 15.531 -1.53 15.979 -1.529 16.383 -1.431 C 17.602 -1.132 17.28 .456 17.146 1.416 C 17.035 2.178 16.966 3.469 15.245 3.154 C 13.533 2.838 12.186 2.761 10.549 2.961 C 9.177 3.171 7.847 3.648 6.842 4.398 C 5.744 5.227 5.016 6.398 4.328 7.567 C 4 8.119 3.48 8.988 2.735 8.941 C .594 8.799 .627 6.164 .52 4.563 C .488 4.118 .661 2.254 .127 2.025 C -.279 1.842 -.793 2.355 -1.014 2.654 C -1.482 3.282 -1.824 4.9 -2.031 5.1 C -2.248 5.271 -2.617 .021 -3.906 -1.761 C -4.332 -2.355 -4.996 -2.739 -5.273 -3.438 C -5.494 -4.01 -5.481 -4.642 -5.266 -5.214 C -5.046 -5.794 -4.348 -7.032 -4.031 -7.712 C -3.713 -8.396 -3.217 -10.063 -3.217 -11.173 C -3.217 -12.286 -4.041 -15.292 -3.432 -17.146 C -2.984 -18.49 -1.48 -19.79 -.201 -20.286 C .476 -20.555 1.313 -20.686 1.803 -20.04 C 2.516 -19.085 1.98 -17.872 1.43 -17.007 C 1.108 -16.501 .834 -15.964 .597 -15.414 C .02 -14.071 -.361 -11.831 -.689 -10.403 C -.961 -9.225 -1.008 -9.596 -1.216 -8.407 C -1.313 -7.868 -.711 -5.491 .482 -7.167 " fill="#ffffff"/>
<path transform="matrix(1,0,0,-1,95.0479,108.995899)" d="M 0 0 C -.256 -.461 -.303 -1.094 -.357 -1.643 C -.408 -2.107 -.557 -3.432 .041 -3.432 C .529 -3.432 1.081 -3.477 1.26 -2.695 C 1.367 -2.218 1.174 -.434 .663 .146 C .418 .387 .182 .321 0 0 " fill="#ffffff"/>
<path transform="matrix(1,0,0,-1,97.9834,108.742)" d="M 0 0 C -.266 -.465 -.363 -2.65 -.094 -2.846 C .178 -3.039 .453 -3.046 .749 -3.008 C 1.139 -2.959 1.502 -2.805 1.574 -2.324 C 1.66 -1.688 1.585 .533 .786 .533 C .479 .533 .158 .272 0 0 " fill="#ffffff"/>
<path transform="matrix(1,0,0,-1,102.3467,107.665798)" d="M 0 0 C -.152 .111 -.326 .154 -.527 .104 C -1.061 -.032 -1.314 -.809 -1.377 -1.395 C -1.434 -1.959 -1.443 -2.67 -1.314 -3.213 C -1.232 -3.548 -1.188 -3.604 -.909 -3.622 C -.506 -3.65 .336 -3.74 .51 -3.172 C .711 -2.505 .703 -1.412 .475 -.738 C .372 -.447 .224 -.16 0 0 " fill="#ffffff"/>
<path transform="matrix(1,0,0,-1,110.3369,86.6971)" d="M 0 0 C -.953 0 -3.42 -.754 -6.619 -.754 C -9.818 -.754 -12.195 0 -13.365 0 C -14.541 0 -14.773 -1.143 -13.766 -2.535 C -13.238 -3.279 -11.958 -4.869 -11.372 -4.606 C -10.684 -4.299 -12.059 -3.057 -11.947 -2.588 C -11.826 -2.087 -11.082 -2.209 -10.704 -2.282 C -8.744 -2.664 -7.412 -2.505 -7.92 -4.027 C -8.316 -4.871 -9.186 -5.422 -9.752 -5.893 C -10.352 -6.402 -9.33 -7.31 -8.983 -7.629 C -8.311 -8.238 -7.275 -8.576 -6.615 -8.576 C -5.954 -8.576 -4.916 -8.238 -4.243 -7.629 C -3.891 -7.31 -2.869 -6.402 -3.475 -5.893 C -4.043 -5.422 -5.105 -4.871 -5.5 -4.027 C -6.008 -2.505 -4.479 -2.664 -2.524 -2.282 C -2.145 -2.209 -1.398 -2.087 -1.278 -2.588 C -1.168 -3.057 -2.524 -4.316 -1.837 -4.624 C -1.254 -4.889 .086 -3.175 .541 -2.535 C 1.603 -1.143 .955 0 0 0 " fill="#ffffff"/>
<path transform="matrix(1,0,0,-1,113.7725,131.3992)" d="M 0 0 C .473 -.023 .711 .801 .836 1.594 C .938 2.279 1.443 7.864 .717 7.862 C .285 7.854 -1.891 3.731 -2.299 2.48 C -2.427 2.086 -2.477 1.717 -2.365 1.438 C -2.102 .766 -.656 .039 0 0 " fill="#ffffff"/>
<path transform="matrix(1,0,0,-1,109.4521,126.495899)" d="M 0 0 C -.379 .209 -1.396 .223 -1.629 -.333 C -1.639 -.354 -1.641 -.375 -1.649 -.396 C -1.865 -1.095 -1.75 -2.499 -1.447 -3.145 C -1.279 -3.497 -.645 -3.651 -.352 -3.516 C .189 -3.267 .314 -2.386 .402 -1.821 C .506 -1.098 .742 -.405 0 0 " fill="#ffffff"/>
<path transform="matrix(1,0,0,-1,105.5205,125.869899)" d="M 0 0 C -.512 .063 -.794 -.097 -.949 -.371 C -1.165 -.771 -1.11 -1.421 -1.061 -2.027 C -1.004 -2.705 -.832 -4.053 .068 -3.635 C .928 -3.231 .842 -1.546 .836 -.716 C .836 -.218 .358 -.048 0 0 " fill="#ffffff"/>
<path transform="matrix(1,0,0,-1,116.4658,111.5877)" d="M 0 0 C .137 -.732 .679 -2.814 1.45 -1.385 C 1.992 -.383 3.869 5.227 3.828 5.887 C 3.838 5.74 -.383 5.533 -.428 5.537 C -.479 4.785 -.189 1.029 0 0 " fill="#ffffff"/>
<path transform="matrix(1,0,0,-1,113.3174,107.7224)" d="M 0 0 C -.178 .592 -.943 1.018 -1.426 1.201 C -1.914 1.39 -4.547 2.574 -5.969 3.242 C -7.469 3.946 -8.773 4.514 -9.596 4.514 C -10.508 4.514 -12.023 3.814 -13.738 2.997 C -15.022 2.385 -17.342 1.361 -17.756 1.201 C -18.178 1.041 -19.011 .592 -19.189 0 C -19.342 -.498 -18.977 -.467 -18.702 -.381 C -18.316 -.256 -17.805 .283 -17.346 .236 C -16.861 .184 -16.585 -.858 -16.091 -.285 C -15.645 .228 -15.207 .851 -14.577 .984 C -14.105 1.08 -13.76 .578 -13.371 .385 C -12.598 .006 -12.337 1.449 -11.479 1.602 C -10.705 1.734 -10.393 .809 -9.596 .809 C -8.794 .809 -8.48 1.734 -7.709 1.602 C -6.852 1.449 -6.553 -.047 -5.781 .336 C -5.384 .527 -5.084 1.08 -4.613 .984 C -3.979 .851 -3.544 .344 -3.097 -.166 C -2.602 -.739 -2.33 .184 -1.842 .236 C -1.378 .283 -.871 -.256 -.482 -.381 C -.209 -.467 .155 -.498 0 0 " fill="#ffffff"/>
<path transform="matrix(1,0,0,-1,106.2959,97.3445)" d="M 0 0 C -1.254 -1.254 -1.287 -2.796 -.486 -3.82 C .311 -4.841 5.396 -6.329 6.771 -6.538 C 8.986 -6.874 11.268 -6.864 13.516 -6.612 C 15.069 -6.44 16.662 -5.948 18.012 -5.159 C 18.694 -4.761 20.383 -3.622 20.24 -2.665 C 20.116 -1.822 19.322 -2.302 18.961 -2.548 C 18.291 -2.999 17.476 -3.349 16.729 -3.649 C 10.057 -5.812 7.429 -4.198 6.494 -3.792 C 6.15 -3.64 4.246 -2.753 4.641 -2.155 C 4.807 -1.904 5.394 -1.367 6.654 -1.872 C 7.94 -2.388 9.137 -2.416 10.521 -2.408 C 12.391 -2.392 12.516 -2.302 14.315 -1.78 C 16.162 -1.245 17.869 -.233 19.359 .967 C 19.772 1.308 20.598 2.13 20.562 2.704 C 20.496 3.669 19.146 2.796 18.855 2.593 C 18.294 2.206 17.225 1.228 14.924 .548 C 11.639 -.47 9.315 -.245 7.459 .423 C 6.738 .728 6.969 1.788 7.943 1.837 C 8.776 1.884 12.055 .663 16.947 3.983 C 17.885 4.703 20.154 6.052 19.703 7.405 C 19.484 8.067 18.572 7.657 17.532 6.556 C 16.902 5.853 15.154 4.478 13.838 3.851 C 10.824 2.31 8.271 3.442 7.92 3.663 C 7.57 3.886 7.957 4.351 8.666 4.574 C 9.496 4.87 11.83 5.009 13.518 6.009 C 17.063 8.097 16.871 9.931 16.402 10.234 C 15.809 10.628 14.924 9.325 14.516 9.042 C 9.045 5.269 9.703 8.696 9.734 9.606 C 9.743 9.813 9.924 10.615 10.114 12.878 C 10.168 13.556 9.756 14.398 9.086 13.548 C 8.557 12.772 8.389 11.907 7.572 9.521 C 5.834 4.669 1.258 1.257 0 0 " fill="#ffffff"/>
<path transform="matrix(1,0,0,-1,101.1748,97.4724)" d="M 0 0 C 1.256 -1.254 1.285 -2.795 .488 -3.818 C -.313 -4.838 -5.391 -6.324 -6.771 -6.536 C -8.984 -6.872 -11.268 -6.862 -13.512 -6.611 C -15.065 -6.439 -16.658 -5.945 -18.008 -5.158 C -18.691 -4.754 -20.383 -3.619 -20.238 -2.662 C -20.115 -1.822 -19.322 -2.301 -18.955 -2.548 C -18.289 -2.996 -17.475 -3.348 -16.727 -3.648 C -10.056 -5.812 -7.428 -4.195 -6.495 -3.787 C -6.148 -3.638 -4.24 -2.752 -4.639 -2.152 C -4.804 -1.906 -5.391 -1.365 -6.652 -1.869 C -7.938 -2.385 -9.131 -2.41 -10.518 -2.406 C -12.389 -2.392 -12.516 -2.303 -14.312 -1.779 C -16.156 -1.24 -17.867 -.232 -19.354 .973 C -19.773 1.309 -20.597 2.133 -20.558 2.705 C -20.492 3.676 -19.141 2.796 -18.854 2.594 C -18.293 2.215 -17.222 1.232 -14.918 .551 C -11.636 -.468 -9.312 -.243 -7.455 .425 C -6.734 .731 -6.963 1.791 -7.939 1.84 C -8.773 1.886 -12.049 .662 -16.941 3.982 C -17.882 4.709 -20.149 6.057 -19.703 7.406 C -19.479 8.066 -18.57 7.66 -17.531 6.559 C -16.898 5.853 -15.148 4.479 -13.839 3.854 C -10.822 2.312 -8.266 3.449 -7.917 3.666 C -7.568 3.887 -7.953 4.355 -8.662 4.576 C -9.492 4.868 -11.828 5.01 -13.52 6.011 C -17.061 8.1 -16.865 9.934 -16.398 10.236 C -15.805 10.629 -14.926 9.326 -14.512 9.047 C -9.041 5.27 -9.702 8.698 -9.732 9.609 C -9.74 9.816 -9.922 10.617 -10.11 12.879 C -10.166 13.56 -9.756 14.4 -9.088 13.55 C -8.553 12.777 -8.387 11.908 -7.57 9.521 C -5.834 4.672 -1.254 1.26 0 0 " fill="#ffffff"/>
<path transform="matrix(1,0,0,-1,136.4795,44.4012)" d="M 0 0 C 2.284 .609 3.424 -.105 5.703 .586 C 7.262 1.057 10.15 2.918 11.404 1.259 C 12.201 .207 12.652 -1.826 12.705 -3.086 C 12.781 -4.947 12.498 -7.314 12.104 -9.132 C 11.869 -10.208 10.018 -18.533 8.32 -16.007 C 7.805 -15.235 6.838 -11.023 4.863 -8.22 C 3.195 -5.844 .501 -4.848 -.133 -3.983 C -.797 -3.08 -1.521 -.406 0 0 M -3.16 -6.847 C -5.178 -6.782 -6.749 -6.001 -8.152 -4.614 C -9.801 -2.982 -11.788 -2.332 -14.056 -2.061 C -15.295 -1.916 -16.531 -2.111 -17.752 -1.781 C -19.229 -1.383 -20.181 -.759 -21.969 .237 C -23.428 1.056 -24.671 1.461 -26.141 1.538 C -27.791 1.631 -31.197 -.376 -32.711 -.376 C -34.227 -.376 -37.72 1.631 -39.369 1.538 C -40.842 1.461 -42.08 1.056 -43.547 .237 C -45.332 -.759 -46.28 -1.383 -47.76 -1.781 C -48.977 -2.111 -50.212 -1.916 -51.457 -2.061 C -53.725 -2.332 -55.713 -2.982 -57.36 -4.614 C -58.763 -6.001 -60.338 -6.782 -62.354 -6.847 C -63.096 -6.868 -64.914 -6.87 -63.867 -5.742 C -63.266 -5.088 -62.527 -4.529 -61.879 -3.902 C -60.84 -2.908 -59.999 -1.693 -58.826 -.842 C -57.551 .086 -56.05 .68 -54.527 1.063 C -52.75 1.512 -50.64 1.432 -48.885 2.004 C -46.924 2.646 -45.283 3.66 -43.407 4.52 C -40.309 5.936 -37.24 5.334 -34.074 4.545 C -33.795 4.476 -33.133 4.375 -32.765 4.375 C -32.4 4.375 -31.719 4.476 -31.438 4.545 C -28.271 5.334 -25.201 5.936 -22.102 4.52 C -20.225 3.66 -18.588 2.646 -16.625 2.004 C -14.872 1.432 -12.762 1.512 -10.984 1.063 C -9.463 .68 -7.967 .086 -6.684 -.842 C -5.512 -1.693 -4.672 -2.908 -3.633 -3.902 C -2.984 -4.529 -2.246 -5.088 -1.641 -5.742 C -.596 -6.87 -2.412 -6.868 -3.16 -6.847 M -19.162 -4.582 C -18.881 -4.83 -17.428 -6.033 -17.914 -6.735 C -18.15 -7.077 -18.442 -6.896 -18.717 -6.78 C -19.457 -6.461 -20.172 -6.139 -20.916 -5.832 C -23.433 -4.785 -26.278 -4.367 -28.859 -5.252 C -29.639 -5.52 -32.236 -6.79 -32.71 -6.79 C -33.182 -6.79 -35.776 -5.52 -36.559 -5.252 C -39.139 -4.367 -41.982 -4.785 -44.5 -5.832 C -45.246 -6.139 -45.961 -6.461 -46.699 -6.78 C -46.975 -6.896 -47.27 -7.077 -47.507 -6.735 C -47.988 -6.033 -46.537 -4.83 -46.253 -4.582 C -44.329 -2.878 -42.274 -2.069 -40.057 -1.575 C -39.363 -1.426 -38.648 -1.335 -37.925 -1.335 C -35.48 -1.335 -33.668 -2.71 -32.653 -2.71 C -31.635 -2.71 -30.068 -1.335 -27.488 -1.335 C -26.771 -1.335 -26.051 -1.426 -25.363 -1.575 C -23.139 -2.069 -21.09 -2.878 -19.162 -4.582 M -32.758 -10.179 C -32.439 -10.179 -30.776 -8.934 -27.563 -8.002 C -25.482 -7.442 -23.155 -7.347 -21.053 -7.792 C -20.043 -8.004 -19.064 -8.348 -18.125 -8.827 C -17.67 -9.058 -16.738 -9.501 -16.842 -10.276 C -16.9 -10.704 -17.486 -10.54 -17.721 -10.481 C -19.929 -9.919 -24.243 -9.622 -29.033 -12.53 C -29.938 -13.088 -32.477 -14.823 -32.758 -14.823 C -33.036 -14.823 -35.574 -13.088 -36.479 -12.53 C -40.477 -10.044 -45.578 -9.919 -47.785 -10.481 C -48.023 -10.54 -48.607 -10.704 -48.666 -10.276 C -48.773 -9.501 -47.843 -9.058 -47.386 -8.827 C -46.448 -8.348 -45.465 -8.004 -44.463 -7.792 C -42.354 -7.347 -40.029 -7.442 -37.945 -8.002 C -34.735 -8.934 -33.073 -10.179 -32.758 -10.179 M -12.987 -14.984 C -12.392 -15.675 -13.094 -15.687 -13.738 -15.593 C -14.068 -15.55 -15.438 -15.326 -15.913 -15.271 C -17.869 -15.059 -20.069 -15.296 -22.002 -15.811 C -24.344 -16.437 -28.117 -18.014 -29.792 -22.051 C -31.469 -26.084 -31.279 -31.597 -31.419 -34.627 C -31.559 -37.562 -31.98 -38.619 -32.758 -38.619 C -33.533 -38.619 -33.953 -37.562 -34.092 -34.627 C -34.233 -31.597 -34.045 -26.084 -35.719 -22.051 C -37.396 -18.014 -41.164 -16.437 -43.508 -15.811 C -45.438 -15.296 -47.645 -15.059 -49.599 -15.271 C -50.072 -15.326 -51.443 -15.55 -51.771 -15.593 C -52.418 -15.687 -53.121 -15.675 -52.523 -14.984 C -51.703 -14.035 -50.23 -13.486 -49.066 -13.261 C -47.257 -12.911 -45.279 -12.964 -43.474 -13.255 C -41.848 -13.517 -40.242 -14.035 -38.741 -14.743 C -37.355 -15.402 -33.27 -18.099 -32.794 -18.099 C -32.319 -18.099 -28.16 -15.402 -26.771 -14.743 C -25.27 -14.035 -23.665 -13.517 -22.035 -13.255 C -20.227 -12.964 -18.258 -12.911 -16.447 -13.261 C -15.282 -13.486 -13.805 -14.035 -12.987 -14.984 M -8.952 -19.854 C -8.457 -20.059 -4.998 -21.488 -5.711 -22.43 C -5.998 -22.806 -7.797 -22.203 -8.133 -22.133 C -9.185 -21.904 -10.229 -21.645 -11.286 -21.438 C -13.064 -21.095 -15.176 -20.772 -16.993 -20.837 C -18.555 -20.894 -20.322 -21.126 -21.73 -21.859 C -25.996 -24.094 -26.684 -29.477 -27.498 -33.735 C -27.644 -34.47 -27.74 -35.209 -27.988 -35.922 C -28.129 -36.334 -28.927 -37.417 -29.449 -36.678 C -29.842 -35.929 -29.707 -34.5 -29.639 -33.574 C -29.457 -31.123 -28.955 -25.762 -27.135 -22.67 C -25.318 -19.576 -21.281 -17.833 -14.963 -18.321 C -12.965 -18.581 -10.818 -19.081 -8.952 -19.854 M -35.647 -33.063 C -35.541 -33.986 -35.344 -35.408 -35.703 -36.17 C -36.197 -36.935 -37.037 -35.885 -37.195 -35.48 C -37.467 -34.777 -37.604 -34.043 -37.777 -33.313 C -38.773 -29.097 -39.686 -23.744 -44.04 -21.691 C -45.479 -21.017 -47.254 -20.858 -48.822 -20.872 C -50.635 -20.88 -52.73 -21.294 -54.496 -21.713 C -55.539 -21.96 -56.57 -22.265 -57.611 -22.536 C -57.951 -22.623 -59.722 -23.301 -60.025 -22.939 C -60.771 -22.024 -57.378 -20.45 -56.896 -20.228 C -55.059 -19.374 -52.939 -18.788 -50.949 -18.444 C -44.658 -17.688 -40.551 -19.26 -38.605 -22.274 C -36.659 -25.291 -35.928 -30.622 -35.647 -33.063 M -66.502 -4.233 C -67.135 -5.099 -69.83 -6.098 -71.497 -8.472 C -73.477 -11.276 -74.439 -15.487 -74.957 -16.258 C -76.654 -18.784 -78.505 -10.46 -78.737 -9.382 C -79.133 -7.566 -79.417 -5.701 -79.34 -3.842 C -79.287 -2.58 -78.832 -.043 -78.04 1.004 C -76.785 2.666 -73.895 .807 -72.338 .334 C -70.059 -.355 -68.92 .359 -66.636 -.252 C -65.113 -.658 -65.836 -3.33 -66.502 -4.233 M 19.395 -39.04 C 19.796 -39.298 20.217 -39.526 20.651 -39.722 C 21.099 -39.921 21.199 -39.688 21.223 -39.249 C 21.318 -37.528 20.479 -35.543 19.742 -34.021 C 18.594 -31.646 16.934 -29.601 15.24 -27.59 C 15.012 -27.321 13.244 -25.538 14.225 -25.434 C 14.631 -25.391 15.141 -25.643 15.518 -25.797 C 15.963 -25.976 17.568 -26.359 17.946 -26.263 C 18.97 -25.992 16.141 -21.867 15.887 -21.3 C 15.204 -19.753 15.195 -17.447 15.447 -15.806 C 15.717 -14.083 16.176 -12.396 16.477 -10.683 C 16.984 -7.849 17.42 -4.221 16.924 -1.355 C 16.645 .248 15.963 1.92 15.048 3.271 C 14.453 4.152 13.178 5.027 12.081 5.099 C 10.809 5.184 9.971 4.93 8.723 4.732 C 3.67 3.936 -1.801 3.156 -6.89 3.769 C -9.557 4.09 -12.209 4.682 -14.762 5.487 C -15.545 5.734 -16.32 5.992 -17.095 6.259 C -18.775 6.836 -20.355 7.653 -22.053 8.174 C -23.869 8.73 -25.865 9.07 -27.76 8.742 C -29.512 8.441 -31.314 7.589 -32.758 7.589 C -34.191 7.589 -36.002 8.441 -37.752 8.742 C -39.644 9.07 -41.642 8.73 -43.463 8.174 C -45.158 7.653 -46.74 6.836 -48.414 6.259 C -49.19 5.992 -49.967 5.734 -50.748 5.487 C -53.303 4.682 -55.953 4.09 -58.623 3.769 C -63.715 3.156 -69.178 3.936 -74.234 4.732 C -75.482 4.93 -76.322 5.184 -77.592 5.099 C -78.686 5.027 -79.964 4.152 -80.561 3.271 C -81.475 1.92 -82.159 -.257 -82.436 -1.857 C -82.931 -4.725 -82.496 -7.849 -81.988 -10.683 C -81.685 -12.396 -81.229 -14.083 -80.961 -15.806 C -80.707 -17.447 -80.717 -19.753 -81.396 -21.3 C -81.654 -21.867 -84.482 -25.992 -83.457 -26.263 C -83.08 -26.359 -81.475 -25.976 -81.024 -25.797 C -80.653 -25.643 -80.143 -25.391 -79.736 -25.434 C -78.756 -25.538 -80.523 -27.321 -80.75 -27.59 C -82.441 -29.601 -84.105 -31.646 -85.254 -34.021 C -85.99 -35.543 -86.828 -37.528 -86.732 -39.249 C -86.707 -39.688 -86.609 -39.921 -86.166 -39.722 C -85.729 -39.526 -85.305 -39.298 -84.906 -39.04 C -84.906 -39.04 -83.523 -38.14 -83.252 -38.595 C -82.916 -39.149 -83.615 -39.895 -83.912 -40.303 C -85.617 -42.659 -86.16 -45.777 -86.368 -48.602 C -86.434 -49.438 -86.647 -52.417 -86.257 -52.644 C -85.787 -52.919 -85.188 -52.142 -84.941 -51.845 C -84.502 -51.315 -84.105 -50.767 -83.566 -50.323 C -83.154 -49.995 -82.764 -52.173 -83.053 -52.94 C -83.629 -54.47 -83.992 -56.431 -84.051 -58.057 C -84.107 -59.823 -83.805 -61.612 -83.258 -63.272 C -83.154 -63.586 -82.819 -64.435 -82.393 -64.333 C -81.928 -64.222 -80.133 -60.757 -79.574 -61.076 C -79.008 -61.39 -79.766 -63.454 -79.252 -67.063 C -78.855 -69.931 -77.914 -72.731 -76.457 -75.241 C -76.338 -75.442 -75.987 -76.116 -75.678 -76.116 C -75.16 -76.112 -75.141 -74.954 -75.111 -74.632 C -75.039 -73.864 -74.916 -73.017 -74.555 -72.325 C -74.279 -71.802 -73.814 -71.458 -73.477 -72.119 C -73.066 -72.921 -73.225 -74.093 -71.973 -77.429 C -71.72 -78.106 -71.361 -78.743 -71.035 -79.39 C -70.719 -80.007 -70.382 -80.624 -70 -81.212 C -69.236 -82.382 -68.189 -83.73 -66.828 -84.235 C -66.508 -84.354 -66.385 -84.207 -66.342 -83.99 C -66.301 -83.751 -66.581 -80.868 -66.135 -79.963 C -65.648 -79.058 -63.631 -81.735 -62.795 -82.89 C -61.794 -84.262 -60.59 -85.48 -59.217 -86.479 C -58.291 -87.15 -57.283 -87.936 -56.188 -88.309 C -54.775 -88.781 -55.195 -87.58 -55.357 -86.654 C -55.568 -85.442 -56.327 -81.267 -56.613 -80.081 C -57.108 -78.021 -57.852 -77.952 -59.684 -76.829 C -60.387 -76.396 -61.114 -75.455 -61.279 -74.636 C -61.515 -73.484 -61.31 -72.285 -61.668 -71.151 C -61.915 -70.362 -62.795 -69.654 -63.553 -69.399 C -65.706 -68.673 -67.982 -69.535 -70.152 -68.93 C -71.74 -68.491 -72.682 -67.794 -73.27 -66.237 C -73.789 -64.851 -73.831 -63.252 -73.674 -61.794 C -73.559 -60.681 -73.74 -59.466 -74.425 -58.548 C -75.061 -57.693 -76.106 -57.357 -76.833 -56.604 C -77.382 -56.026 -77.863 -55.323 -78.096 -54.562 C -78.673 -52.644 -77.399 -50.926 -77.063 -49.104 C -76.702 -47.165 -78.215 -45.293 -79.231 -43.765 C -81.271 -40.714 -80.018 -37.483 -78.162 -34.752 C -77.225 -33.377 -76.136 -32.012 -75.715 -30.375 C -75.253 -28.586 -76.115 -26.941 -76.248 -25.176 C -76.395 -23.197 -75.973 -22.042 -74.27 -20.998 C -73.221 -20.355 -72.251 -19.763 -71.475 -18.784 C -70.059 -16.997 -69.854 -14.478 -68.75 -12.499 C -68.364 -11.796 -67.873 -10.954 -67.256 -10.428 C -66.032 -9.39 -64.229 -9.046 -62.68 -8.87 C -61.213 -8.71 -59.727 -8.506 -58.332 -7.995 C -57.099 -7.544 -53.334 -5.064 -52.127 -4.698 C -50.927 -4.33 -47.826 -4.402 -48.963 -6.207 C -49.319 -6.775 -53.971 -9.319 -55.063 -10.356 C -56.043 -11.28 -57.039 -11.909 -58.355 -12.231 C -59.527 -12.515 -60.852 -12.321 -62.012 -12.576 C -62.924 -12.772 -63.99 -13.39 -64.563 -14.12 C -65.78 -15.655 -66.012 -17.397 -66.841 -19.102 C -67.556 -20.579 -68.495 -21.895 -69.907 -22.764 C -70.439 -23.094 -70.994 -23.42 -71.371 -23.938 C -72.027 -24.832 -71.617 -25.941 -71.358 -26.896 C -70.898 -28.577 -71.117 -31.289 -71.701 -32.912 C -72.15 -34.162 -72.691 -35.009 -73.545 -36.008 C -74.32 -36.909 -75.103 -37.851 -75.494 -38.987 C -76.016 -40.481 -75.684 -42.181 -74.82 -43.485 C -73.967 -44.757 -72.808 -45.923 -72.561 -47.499 C -72.332 -48.965 -73.087 -50.122 -73.389 -51.501 C -73.543 -52.208 -73.522 -53.155 -73.179 -53.804 C -72.883 -54.365 -72.391 -54.618 -71.881 -54.94 C -71.373 -55.269 -70.838 -55.595 -70.535 -56.138 C -69.938 -57.219 -69.721 -58.563 -69.721 -59.788 C -69.725 -60.903 -69.635 -62.13 -68.785 -62.944 C -67.891 -63.801 -66.729 -64.095 -65.51 -63.946 C -64.024 -63.761 -62.787 -63.354 -61.414 -64.122 C -61.05 -64.329 -60.604 -64.755 -60.381 -65.119 C -60.201 -65.418 -60.057 -65.743 -59.86 -66.031 C -59.449 -66.657 -58.539 -67.245 -57.788 -66.907 C -56.779 -66.546 -56.941 -64.519 -57.937 -63.038 C -58.938 -61.554 -60.254 -60.292 -61.945 -60.288 C -62.727 -60.288 -63.51 -60.536 -64.291 -60.483 C -65.719 -60.388 -66.771 -59.433 -66.713 -57.973 C -66.68 -57.09 -66.784 -55.991 -67.273 -55.224 C -67.842 -54.341 -68.744 -53.921 -69.229 -52.956 C -69.699 -52.034 -69.447 -51.121 -69.152 -50.185 C -68.513 -48.112 -68.686 -45.446 -69.982 -43.648 C -70.441 -43.003 -70.982 -42.422 -71.398 -41.747 C -72.41 -40.117 -71.434 -38.312 -70.335 -37.028 C -69.578 -36.153 -69.016 -35.038 -68.439 -33.988 C -67.68 -32.605 -67.455 -30.559 -67.648 -29.013 C -67.813 -27.694 -68.619 -26.148 -67.988 -24.896 C -67.578 -24.079 -67.104 -23.953 -65.921 -22.776 C -64.749 -21.598 -63.347 -16.407 -62.291 -15.507 C -61.445 -14.786 -60.926 -14.786 -58.874 -14.569 C -57.463 -14.423 -57.492 -14.167 -55.127 -12.942 C -52.766 -11.716 -51.012 -11.522 -50.649 -11.926 C -50.361 -12.259 -50.752 -12.789 -50.959 -13.028 C -51.322 -13.442 -54.238 -16.001 -54.851 -16.415 C -55.559 -16.896 -56.566 -18.532 -58.102 -19.018 C -59.635 -19.499 -61.01 -21.175 -61.467 -22.084 C -61.918 -22.994 -62.68 -25.605 -61.508 -25.474 C -60.764 -25.355 -55.519 -23.504 -53.555 -23.316 C -51.829 -23.15 -50.029 -23.057 -48.315 -23.242 C -46.301 -23.461 -44.434 -24.242 -43.154 -25.865 C -42.461 -26.744 -42.113 -27.904 -41.864 -28.982 C -41.301 -31.384 -41.215 -33.885 -40.916 -36.325 C -40.791 -37.321 -40.87 -38.562 -39.992 -39.249 C -39.404 -39.702 -36.793 -40.704 -32.758 -40.704 C -28.719 -40.704 -26.102 -39.702 -25.52 -39.249 C -24.641 -38.562 -24.716 -37.321 -24.596 -36.325 C -24.297 -33.885 -24.211 -31.384 -23.645 -28.982 C -23.397 -27.904 -23.053 -26.744 -22.359 -25.865 C -21.08 -24.242 -19.207 -23.461 -17.191 -23.242 C -15.482 -23.057 -13.683 -23.15 -11.957 -23.316 C -9.993 -23.504 -4.464 -25.355 -3.72 -25.474 C -2.545 -25.605 -3.451 -24.003 -3.906 -23.09 C -4.359 -22.182 -5.59 -19.499 -7.127 -19.018 C -8.662 -18.532 -9.514 -16.896 -10.219 -16.415 C -10.829 -16.001 -14.189 -13.442 -14.549 -13.028 C -14.761 -12.789 -15.152 -12.259 -14.857 -11.926 C -14.501 -11.522 -12.748 -11.716 -10.383 -12.942 C -8.02 -14.167 -8.05 -14.423 -6.635 -14.569 C -4.583 -14.786 -4.066 -14.786 -3.215 -15.507 C -2.162 -16.407 -.763 -21.598 .414 -22.776 C 1.59 -23.953 2.064 -24.079 2.479 -24.896 C 3.109 -26.148 2.301 -27.694 2.136 -29.013 C 1.945 -30.559 2.17 -32.605 2.927 -33.988 C 3.503 -35.038 4.068 -36.153 4.822 -37.028 C 5.922 -38.312 6.9 -40.117 5.889 -41.747 C 5.473 -42.422 4.932 -43.003 4.471 -43.648 C 3.177 -45.446 3.001 -48.112 3.646 -50.185 C 3.936 -51.121 4.189 -52.034 3.721 -52.956 C 3.233 -53.921 2.33 -54.341 1.764 -55.224 C 1.273 -55.991 1.169 -57.09 1.201 -57.973 C 1.258 -59.433 .205 -60.388 -1.22 -60.483 C -2.002 -60.536 -2.785 -60.288 -3.566 -60.288 C -5.262 -60.292 -6.574 -61.554 -7.572 -63.038 C -8.57 -64.519 -8.727 -66.546 -7.721 -66.907 C -6.971 -67.245 -6.061 -66.657 -5.648 -66.031 C -5.455 -65.743 -5.313 -65.418 -5.127 -65.119 C -4.908 -64.755 -4.462 -64.329 -4.098 -64.122 C -2.725 -63.354 -1.484 -63.761 0 -63.946 C 1.219 -64.095 2.378 -63.801 3.275 -62.944 C 4.123 -62.13 4.217 -60.903 4.213 -59.788 C 4.211 -58.563 4.424 -57.219 5.023 -56.138 C 5.332 -55.595 5.864 -55.269 6.371 -54.94 C 6.883 -54.618 7.378 -54.365 7.668 -53.804 C 8.011 -53.155 8.028 -52.208 7.88 -51.501 C 7.578 -50.122 6.822 -48.965 7.053 -47.499 C 7.297 -45.923 8.456 -44.757 9.309 -43.485 C 10.172 -42.181 10.502 -40.481 9.988 -38.987 C 9.592 -37.851 8.81 -36.909 8.038 -36.008 C 7.18 -35.009 6.641 -34.162 6.189 -32.912 C 5.604 -31.289 5.387 -28.577 5.846 -26.896 C 6.104 -25.941 6.516 -24.832 5.859 -23.938 C 5.483 -23.42 4.93 -23.094 4.395 -22.764 C 2.986 -21.895 2.044 -20.579 1.328 -19.102 C .501 -17.397 .268 -15.655 -.949 -14.12 C -1.521 -13.39 -2.594 -12.772 -3.496 -12.576 C -4.657 -12.321 -5.984 -12.515 -7.156 -12.231 C -8.471 -11.909 -9.464 -11.28 -10.448 -10.356 C -11.543 -9.319 -15.461 -6.775 -15.814 -6.207 C -16.953 -4.402 -14.322 -4.33 -13.121 -4.698 C -11.916 -5.064 -8.413 -7.544 -7.18 -7.995 C -5.785 -8.506 -4.303 -8.71 -2.832 -8.87 C -1.284 -9.046 .523 -9.39 1.744 -10.428 C 2.361 -10.954 2.852 -11.796 3.243 -12.499 C 4.342 -14.478 4.545 -16.997 5.963 -18.784 C 6.74 -19.763 7.711 -20.355 8.758 -20.998 C 10.463 -22.042 10.887 -23.197 10.736 -25.176 C 10.607 -26.941 9.742 -28.586 10.203 -30.375 C 10.623 -32.012 11.715 -33.377 12.649 -34.752 C 14.509 -37.483 15.762 -40.714 13.723 -43.765 C 12.703 -45.293 11.19 -47.165 11.551 -49.104 C 11.889 -50.926 13.164 -52.644 12.586 -54.562 C 12.354 -55.323 11.875 -56.026 11.32 -56.604 C 10.598 -57.357 9.551 -57.693 8.914 -58.548 C 8.232 -59.466 8.049 -60.681 8.169 -61.794 C 8.32 -63.252 8.279 -64.851 7.756 -66.237 C 7.174 -67.794 6.229 -68.491 4.641 -68.93 C 2.473 -69.535 .195 -68.673 -1.959 -69.399 C -2.717 -69.654 -3.596 -70.362 -3.846 -71.151 C -4.202 -72.285 -4 -73.484 -4.231 -74.636 C -4.397 -75.455 -5.125 -76.396 -5.828 -76.829 C -7.662 -77.952 -8.44 -78.021 -8.932 -80.081 C -9.219 -81.267 -9.976 -85.442 -10.193 -86.654 C -10.355 -87.58 -10.766 -88.781 -9.359 -88.309 C -8.265 -87.936 -7.258 -87.15 -6.33 -86.479 C -4.955 -85.48 -3.752 -84.262 -2.754 -82.89 C -1.917 -81.735 .138 -79.058 .623 -79.963 C 1.068 -80.868 .785 -83.751 .834 -83.99 C .875 -84.207 .996 -84.354 1.316 -84.235 C 2.682 -83.73 3.725 -82.382 4.49 -81.212 C 4.873 -80.624 5.204 -80.007 5.523 -79.39 C 5.854 -78.743 6.208 -78.106 6.461 -77.429 C 7.713 -74.093 7.553 -72.921 7.964 -72.119 C 8.305 -71.458 8.768 -71.802 9.043 -72.325 C 9.404 -73.017 9.526 -73.864 9.598 -74.632 C 9.628 -74.954 9.648 -76.112 10.162 -76.116 C 10.479 -76.116 10.826 -75.442 10.943 -75.241 C 12.402 -72.731 13.348 -69.931 13.744 -67.063 C 14.254 -63.454 13.504 -61.39 14.061 -61.076 C 14.621 -60.757 16.416 -64.222 16.885 -64.333 C 17.311 -64.435 17.646 -63.586 17.75 -63.272 C 18.293 -61.612 18.597 -59.823 18.541 -58.057 C 18.482 -56.431 18.115 -54.47 17.541 -52.94 C 17.25 -52.173 17.646 -49.995 18.058 -50.323 C 18.594 -50.767 18.99 -51.315 19.435 -51.845 C 19.672 -52.142 20.279 -52.919 20.748 -52.644 C 21.137 -52.417 20.921 -49.438 20.856 -48.602 C 20.646 -45.777 20.105 -42.659 18.398 -40.303 C 18.104 -39.895 17.407 -39.149 17.74 -38.595 C 18.012 -38.14 19.395 -39.04 19.395 -39.04 " fill="#ffffff"/>
<path transform="matrix(1,0,0,-1,112.7588,136.98709)" d="M 0 0 C -.184 -.629 -1.15 -.823 -1.568 -.811 C -2.738 -.768 -4.652 -.279 -9.018 -.279 C -13.385 -.279 -15.332 -.768 -16.5 -.811 C -16.922 -.823 -17.74 -.562 -17.924 .063 C -18.254 1.204 -15.253 3.525 -8.869 3.525 C -2.477 3.525 .33 1.14 0 0 M 13.398 21.052 C 12.814 21.562 11.865 21.185 11.314 20.8 C 8.169 18.577 6.789 7.49 5.059 2.792 C 4.623 1.594 3.465 -1.32 3.082 -1.32 C 2.704 -1.32 3 1.279 2.922 1.969 C 2.853 2.571 2.383 2.85 1.854 3.029 C 1.854 3.029 -2.984 5.6 -8.933 5.6 C -14.879 5.6 -19.924 3.029 -19.924 3.029 C -20.45 2.85 -20.924 2.571 -20.992 1.969 C -21.068 1.279 -20.785 -1.32 -21.289 -1.32 C -21.791 -1.32 -22.777 1.721 -23.217 2.92 C -24.943 7.619 -26.437 18.577 -29.582 20.8 C -30.131 21.185 -31.076 21.562 -31.662 21.052 C -32.469 20.343 -31.785 19.003 -31.551 18.202 C -31.307 17.378 -31.082 16.552 -30.863 15.717 C -30.525 14.401 -28.939 8.482 -27.74 3.815 C -25.445 -4.742 -21.455 -7.725 -20.545 -7.925 C -19.941 -8.057 -20.246 -3.186 -19.627 -3.018 C -19 -2.844 -15.781 -9.346 -14.635 -9.217 C -13.959 -9.08 -14.399 -4.09 -13.859 -3.754 C -13.322 -3.422 -9.902 -9.049 -9.184 -9.049 C -8.465 -9.049 -4.854 -3.422 -4.316 -3.754 C -3.775 -4.09 -4.11 -9.08 -3.439 -9.217 C -2.289 -9.346 .827 -2.844 1.448 -3.018 C 2.068 -3.186 1.866 -8.057 2.479 -7.925 C 3.385 -7.725 7.375 -4.742 9.674 3.815 C 10.867 8.482 12.26 14.401 12.6 15.717 C 12.814 16.552 13.043 17.378 13.289 18.202 C 13.522 19.003 14.203 20.343 13.398 21.052 " fill="#ffffff"/>
<path transform="matrix(1,0,0,-1,111.7539,116.3894)" d="M 0 0 C -.095 1.061 -.622 2.147 -1.628 2.614 C -2.323 2.933 -3.349 3.086 -4.081 2.854 C -4.853 2.611 -5.026 1.892 -5.3 1.22 C -5.806 -.024 -7.396 -3.615 -8.112 -3.615 C -8.835 -3.615 -10.298 -.024 -10.801 1.22 C -11.077 1.892 -11.246 2.611 -12.019 2.854 C -12.755 3.086 -13.78 2.933 -14.472 2.614 C -15.479 2.147 -16.003 1.061 -16.103 0 C -16.248 -1.627 -14.989 -6.974 -14.184 -7.739 C -13.558 -8.331 -12.894 -8.478 -12.052 -8.452 C -10.722 -8.405 -9.992 -8.212 -8.052 -8.212 C -6.106 -8.212 -5.381 -8.405 -4.052 -8.452 C -3.208 -8.478 -2.546 -8.331 -1.919 -7.739 C -1.11 -6.974 .148 -1.627 0 0 " fill="#ffffff"/>
<path transform="matrix(1,0,0,-1,111.7354,108.849399)" d="M 0 0 C -.504 -.58 -.703 -2.364 -.596 -2.842 C -.418 -3.623 .135 -3.578 .625 -3.578 C 1.225 -3.578 1.07 -2.254 1.022 -1.789 C .967 -1.24 .922 -.607 .668 -.146 C .486 .175 .246 .24 0 0 " fill="#ffffff"/>
<path transform="matrix(1,0,0,-1,108.6777,108.20879)" d="M 0 0 C -.794 0 -.875 -2.222 -.786 -2.857 C -.716 -3.338 -.345 -3.492 .04 -3.541 C .334 -3.579 .613 -3.572 .88 -3.379 C 1.155 -3.184 1.054 -.998 .788 -.533 C .628 -.261 .313 0 0 0 " fill="#ffffff"/>
<path transform="matrix(1,0,0,-1,105.6338,107.562297)" d="M 0 0 C -.203 .051 -.381 .008 -.531 -.104 C -.758 -.264 -.904 -.551 -1.002 -.842 C -1.236 -1.516 -1.241 -2.608 -1.036 -3.275 C -.87 -3.844 -.027 -3.754 .375 -3.726 C .655 -3.707 .702 -3.651 .777 -3.316 C .916 -2.773 .905 -2.063 .844 -1.498 C .777 -.912 .525 -.136 0 0 " fill="#ffffff"/>
<path transform="matrix(1,0,0,-1,132.6553,81.9627)" d="M 0 0 C -.37 -1.068 -1.076 -2.129 -2.099 -2.657 C -3.303 -3.275 -4.852 -3.148 -6.121 -2.798 C -6.424 -2.715 -8.548 -1.868 -7.564 -1.411 C -7.447 -1.356 -7.172 -1.336 -7.035 -1.322 C -6.16 -1.218 -5.36 -1.198 -4.525 -.941 C -3.14 -.516 -2.109 .232 -1.199 1.354 C -.973 1.636 -.596 2.519 -.118 2.208 C .391 1.875 .154 .459 0 0 M -2.582 3.678 C -3.306 2.362 -4.434 1.437 -5.859 .926 C -6.968 .529 -8.162 .359 -9.339 .446 C -10.453 .529 -11.873 .913 -12.791 1.548 C -12.969 1.665 -13.404 1.929 -13.43 2.153 C -13.438 2.208 -13.43 2.251 -13.416 2.293 C -13.318 2.517 -12.927 2.593 -12.729 2.603 C -12.043 2.638 -11.35 2.553 -10.658 2.587 C -8.688 2.685 -6.455 3.122 -4.774 4.479 C -4.244 4.914 -3.826 5.416 -3.434 5.972 C -3.248 6.235 -2.609 7.147 -2.236 6.885 C -1.648 6.481 -2.193 4.38 -2.582 3.678 M 1.1 -6.197 C .891 -7.385 .846 -7.017 .574 -8.195 C .242 -9.623 -.138 -11.863 -.714 -13.209 C -.951 -13.758 -1.225 -14.293 -1.547 -14.799 C -2.099 -15.661 -2.633 -16.877 -1.918 -17.832 C -1.43 -18.477 -.593 -18.346 .084 -18.082 C 1.361 -17.582 2.871 -16.285 3.313 -14.938 C 3.926 -13.087 3.104 -10.078 3.104 -8.965 C 3.104 -7.853 3.602 -6.19 3.914 -5.504 C 4.23 -4.826 4.932 -3.586 5.148 -3.006 C 5.365 -2.434 5.377 -1.802 5.152 -1.23 C 4.879 -.531 4.219 -.147 3.787 .446 C 2.5 2.227 2.132 7.479 1.917 7.308 C 1.707 7.108 1.367 5.489 .903 4.864 C .676 4.563 .162 4.052 -.246 4.231 C -.777 4.464 -.604 6.326 -.637 6.771 C -.744 8.374 -.709 11.007 -2.854 11.149 C -3.595 11.194 -4.121 10.327 -4.441 9.775 C -5.135 8.608 -5.859 7.437 -6.961 6.608 C -7.967 5.853 -9.293 5.376 -10.662 5.169 C -12.303 4.969 -13.648 5.05 -15.365 5.362 C -17.076 5.679 -17.156 4.386 -17.264 3.624 C -17.396 2.664 -17.719 1.074 -16.498 .775 C -16.094 .678 -15.648 .674 -15.259 .53 C -14.424 .224 -14.283 -3.028 -13.513 -3.318 C -12.127 -3.846 -9.858 -2.314 -9.318 -2.647 C -8.813 -2.969 -7.928 -4.412 -7.434 -4.748 C -6.482 -5.389 -5.463 -5.127 -4.834 -5.419 C -4.379 -5.631 -4.338 -6.016 -4.037 -6.404 C -3.248 -7.41 -3.379 -8.865 -2.379 -7.453 C -1.844 -6.695 -1.174 -5.752 -.598 -4.959 C .596 -3.283 1.197 -5.66 1.1 -6.197 " fill="#ffffff"/>
<path transform="matrix(1,0,0,-1,120.0869,74.5008)" d="M 0 0 C -1.012 -.033 -3.537 .165 -3.268 1.765 C -2.873 4.096 -.367 4.795 1.4 4.478 C 2.484 4.285 5.949 4.015 4.84 2.51 C 3.904 1.243 1.508 .053 0 0 " fill="#ffffff"/>
<path transform="matrix(1,0,0,-1,87.3037,74.5008)" d="M 0 0 C 1.012 -.033 3.541 .165 3.27 1.765 C 2.875 4.096 .369 4.795 -1.398 4.478 C -2.479 4.285 -5.953 4.015 -4.839 2.51 C -3.902 1.243 -1.506 .053 0 0 " fill="#ffffff"/>
</g>
</g>
</g>
</svg>
