<?xml version="1.0" encoding="UTF-8" standalone="no"?>
<!DOCTYPE svg PUBLIC "-//W3C//DTD SVG 1.1//EN" "http://www.w3.org/Graphics/SVG/1.1/DTD/svg11.dtd">
<svg xmlns="http://www.w3.org/2000/svg" xmlns:xlink="http://www.w3.org/1999/xlink" version="1.1" width="245.946pt" height="191.491pt" viewBox="0 0 245.946 181.491">
<g enable-background="new">
<g id="Layer-1" data-name="Layer 1">
<path transform="matrix(1,0,0,-1,0,186.491)" d="M .763 0 L 245.946 0 L 245.946 191.491 L .763 191.491 Z " fill="#000000"/>
<clipPath id="cp2">
<path transform="matrix(1,0,0,-1,0,191.491)" d="M 0 181.491 L 245.946 191.491 L 245.946 0 L 0 0 Z "/>
</clipPath>
<g clip-path="url(#cp2)">
<path transform="matrix(1,0,0,-1,91.0317,23.3562)" d="M 0 0 L -42.031 -12.801 L -20.043 -23.66 L -61.793 -85.451 L -42.311 -98.254 L 127.203 -51.213 C 127.203 -51.213 107.998 -32.285 107.162 -32.285 C 106.326 -32.285 106.049 -4.174 106.049 -4.174 L 72.648 -20.875 L 60.402 14.475 Z " fill="#ffffff"/>
<path transform="matrix(1,0,0,-1,92.1626,34.266397)" d="M 0 0 L 1.607 1.221 L 7.771 6.201 L 8.942 .389 L 6.639 -4.529 L 4.783 -1.881 L 1.817 -18.361 L 5.719 -19.936 L 9.611 -11.621 L 12.863 -11.012 L 9.033 -24.33 L 3.725 -24.43 L -3.725 -20.033 " fill="#030505"/>
<path transform="matrix(1,0,0,-1,104.897,58.2117)" d="M 0 0 L -1.74 32.27 L 2.708 29 L 4.574 10.844 L 9.583 15.209 L 15.152 15.207 Z " fill="#030505"/>
<path transform="matrix(1,0,0,-1,134.064,41.209697)" d="M 0 0 L -2.229 -4.539 L -1.616 -11.201 L -5.335 -10.326 L -5.765 -6.986 L -10.813 -10.553 L -15.437 -8.066 L -17.331 12.508 L -12.795 9.791 L -12.505 5.781 L -11.501 -6.676 L -6.668 -3.416 L -8.45 16.238 L -3.96 13.207 L -2.64 -.189 L -2.542 -1.209 Z " fill="#030505"/>
<path transform="matrix(1,0,0,-1,135.229,23.8367)" d="M 0 0 L 1.158 -4.59 L 1.24 -4.451 L 3.982 1.963 Z M 7.746 -8.932 C 7.354 -9.17 1.756 -12.424 1.756 -12.424 L 2.225 -16.994 Z M 13.626 -8.604 L 3.258 -22.184 L 1.46 -24.582 L -3.369 -25.236 L -.855 -21.492 L -2.459 -9.029 L -3.25 -1.689 L -3.27 -1.615 L -8.318 -1.646 L 3.199 5.891 L 9.764 3.027 L 3.09 -7.541 L 9.126 -3.666 Z " fill="#030505"/>
<path transform="matrix(1,0,0,-1,66.063,85.4285)" d="M 0 0 C .35 .92 .707 1.924 1.078 3.012 C 1.453 4.096 1.809 5.113 2.15 6.059 C 2.527 7.172 2.908 8.275 3.295 9.367 L -.258 6.836 Z M 7.792 13.676 L 2 -4.281 L .123 -2.617 L 1.527 -16.938 L -2.541 -13.281 L -4.402 3.947 L -6.449 2.572 L -9 4.551 L 3.295 14.584 Z " fill="#030505"/>
<path transform="matrix(1,0,0,-1,84.856,72.7137)" d="M 0 0 L -5.922 -2.977 L -5.697 -9.381 C -5.697 -9.381 -.584 -1.146 0 0 M -2.333 -11.125 L 5.402 -18.084 L 3.955 -23.158 C 3.891 -23.012 -4.947 -14.469 -5.396 -14.078 L -4.857 -26.457 L -8.709 -23.289 L -10.074 -5.223 L -11.833 -6.289 L -14.458 -3.039 L -.75 3.961 L 5.967 2.373 Z " fill="#030505"/>
<path transform="matrix(1,0,0,-1,94.855,87.8777)" d="M 0 0 L 3.875 13.625 L -1.063 16.188 L -4.688 3.375 Z M 7.688 15.563 L 5.613 6.922 L 2.063 -7.25 L -8.813 2.75 L -3.25 21.438 Z " fill="#030505"/>
<path transform="matrix(1,0,0,-1,128.2925,79.7527)" d="M 0 0 L 3.875 13.625 L -1.063 16.188 L -4.688 3.375 Z M 7.688 15.563 L 5.614 6.922 L 2.063 -7.25 L -8.813 2.75 L -3.25 21.438 Z " fill="#030505"/>
<path transform="matrix(1,0,0,-1,122.0425,85.7527)" d="M 0 0 L -3 -4.875 L -6.265 12.668 L -9.938 -5.688 L -15.72 8.916 L -14.875 -7.063 L -19 -3.125 L -20.563 22.313 L -15.552 20.879 L -10.75 7.938 L -8.688 21.688 L -3.75 25.875 Z " fill="#030505"/>
<path transform="matrix(1,0,0,-1,140.605,58.0652)" d="M 0 0 L 3.233 -23.67 L -1.438 -20.625 L -4.151 -1.359 L -9.375 -3.125 L -13.958 -1.73 L 2.375 4.75 L 7.125 2.5 Z " fill="#030505"/>
<path transform="matrix(1,0,0,-1,158.855,69.1902)" d="M 0 0 L 4.125 -.688 L -5.938 -9.063 L -11.375 -8.063 L -7.5 -4.875 L -8.188 3.375 L -11.438 4.625 L -8.858 6.896 L -9.624 11.996 L -11.375 11.25 L -14.375 13.625 L -3.188 20 L 1.875 18.896 L -5.813 14.75 L -5.188 10 L -2.875 11.896 L 1.804 11.725 L -4.675 5.941 L -3.375 -2.5 Z " fill="#030505"/>
<path transform="matrix(1,0,0,-1,188.605,62.0242)" d="M 0 0 L .375 -4.438 L -8 -8.188 L -12.927 -7.387 L -4.75 -1.688 L -14.438 8.555 L -7.438 18.875 L -2.743 20.033 L -1.125 15.75 L -3.313 9.75 L -5.125 14.688 L -9.083 9.871 Z " fill="#030505"/>
<path transform="matrix(1,0,0,-1,172.106,48.3387)" d="M 0 0 L -5.922 -2.977 L -5.697 -9.381 C -5.697 -9.381 -.584 -1.146 0 0 M -2.333 -11.125 L 4.374 -17.123 L 3.955 -23.158 C 3.891 -23.012 -4.947 -14.469 -5.396 -14.078 L -4.857 -26.457 L -8.709 -23.289 L -10.074 -5.223 L -11.293 -5.959 L -16.126 -3.959 L -.75 3.961 L 5.967 2.373 Z " fill="#030505"/>
</g>
</g>
</g>
</svg>
