<?xml version="1.0" standalone="no"?>
<!DOCTYPE svg PUBLIC "-//W3C//DTD SVG 20010904//EN"
 "http://www.w3.org/TR/2001/REC-SVG-20010904/DTD/svg10.dtd">
<svg version="1.0" xmlns="http://www.w3.org/2000/svg"
 width="700.000000pt" height="700.000000pt" viewBox="0 0 700.000000 700.000000"
 preserveAspectRatio="xMidYMid meet">
<metadata>
Created by potrace 1.11, written by Peter Selinger 2001-2013
</metadata>
<g transform="translate(0.000000,700.000000) scale(0.100000,-0.100000)"
fill="#000000" stroke="none">
<path d="M2995 6885 c-104 -15 -170 -35 -335 -100 -131 -51 -331 -119 -381
-129 -13 -3 -64 -14 -114 -25 -170 -37 -257 -46 -460 -46 -165 0 -187 3 -331
39 -102 25 -224 51 -291 62 -21 3 -57 9 -79 13 -74 14 -170 4 -227 -22 -66
-31 -168 -124 -214 -196 -72 -111 -123 -254 -138 -381 -11 -98 -6 -291 10
-395 3 -16 7 -48 10 -70 6 -39 13 -77 58 -305 32 -161 29 -241 -13 -322 -18
-35 -40 -74 -50 -88 -61 -89 -95 -183 -78 -214 5 -9 12 -45 15 -79 4 -51 1
-71 -15 -103 -11 -21 -30 -73 -42 -114 -12 -41 -40 -116 -61 -167 -81 -190
-99 -345 -52 -438 32 -62 37 -121 19 -226 -21 -127 -30 -233 -29 -359 0 -116
8 -143 63 -210 49 -60 69 -118 75 -218 9 -144 17 -195 48 -297 32 -109 60
-147 146 -202 68 -44 86 -65 104 -128 9 -27 27 -90 42 -140 15 -49 52 -142 83
-205 69 -141 122 -200 203 -224 82 -23 131 -64 180 -148 78 -133 145 -214 225
-268 54 -38 79 -47 161 -60 94 -15 140 -42 259 -149 16 -15 59 -49 95 -74 35
-25 69 -50 74 -54 18 -14 98 -51 167 -77 145 -54 224 -119 321 -263 105 -157
187 -223 322 -259 11 -3 65 -7 120 -8 96 -1 102 -3 159 -38 55 -34 63 -36 125
-33 138 8 161 5 220 -27 75 -42 126 -42 207 1 67 35 85 37 191 26 72 -7 74 -7
157 34 81 41 86 42 167 39 181 -8 325 79 454 275 90 138 164 195 335 262 123
48 278 152 369 247 35 37 133 86 184 93 109 15 182 52 265 136 40 41 131 168
133 186 1 18 68 100 99 120 18 13 58 31 89 40 40 13 69 31 101 63 74 74 190
329 216 474 10 60 44 111 97 146 29 19 65 46 80 60 71 63 122 235 131 440 2
41 9 95 16 119 11 44 56 121 70 121 4 0 17 21 30 46 21 39 24 60 24 147 0 107
-11 284 -18 295 -9 15 -21 121 -20 182 0 48 6 76 24 110 64 120 12 366 -124
588 -39 64 -41 71 -42 157 -1 50 3 111 10 137 16 61 3 114 -51 199 -22 35 -55
92 -72 126 -46 89 -47 168 -4 377 40 193 42 203 62 361 12 91 12 326 1 390
-16 89 -20 105 -46 173 -61 163 -180 310 -297 366 -61 30 -159 40 -242 25 -22
-4 -78 -15 -125 -24 -47 -9 -130 -27 -185 -41 -196 -48 -241 -54 -410 -49 -88
2 -176 6 -195 8 -19 3 -60 8 -90 12 -30 3 -62 8 -70 10 -8 2 -31 7 -50 10
-118 19 -343 89 -541 169 -183 73 -298 99 -439 99 -88 0 -123 -5 -245 -38
-119 -32 -139 -34 -199 -19 -28 7 -87 22 -132 33 -100 26 -205 31 -309 16z"/>
</g>
</svg>
